# xmcd
#
# Track frame offsets:
#	150
#	21175
#	34838
#	52138
#	65534
#	84916
#	98162
#	118855
#	138276
#	151775
#	164245
#
# Disc length: 2388 seconds
#
# Revision: 1
# Processed by: cddbd v1.5.2PL0 Copyright (c) Steve Scherf et al.
# Submitted via: audiograbber 1.83.01
#
DISCID=9209520b
DTITLE=Becky Schlegel - Drifter Like Me
DYEAR=2004
DGENRE=Blues
TTITLE0=drifter like me
TTITLE1=drive on
TTITLE2=so embarrassing
TTITLE3=california night
TTITLE4=tell me now
TTITLE5=these hard times
TTITLE6=cheyenne
TTITLE7=windmill
TTITLE8=never did fit in
TTITLE9=no angel
TTITLE10=let it ride
EXTD=
EXTT0=
EXTT1=
EXTT2=
EXTT3=
EXTT4=
EXTT5=
EXTT6=
EXTT7=
EXTT8=
EXTT9=
EXTT10=
PLAYORDER=
